# xmcd
#
# Track frame offsets:
#	150
#	13772
#	26336
#	38557
#	49712
#	61969
#	74167
#	86094
#	99123
#	112431
#	124385
#	133579
#	144828
#	156184
#	168692
#	182402
#	201415
#	214122
#	223917
#	235242
#	248396
#
# Disc length: 3513 seconds
#
# Revision: 1
# Processed by: cddbd v1.5.2PL0 Copyright (c) Steve Scherf et al.
# Submitted via: audiograbber 1.83.01
#
DISCID=340db715
DTITLE=Joe Turner - The Platinum Collection [Rhino]
DYEAR=0000
DGENRE=Soul
TTITLE0=Shake Rattle And Roll
TTITLE1=Flip Flop And Fly
TTITLE2=Honey Hush
TTITLE3=Well All Right
TTITLE4=Hide And Seek
TTITLE5=Morning Noon And Night
TTITLE6=The Chicken And The Hawk (Up Up And Away)
TTITLE7=Corrine Corrina
TTITLE8=Boogie Woogie Country Girl
TTITLE9=Midnight Special Train
TTITLE10=Rock A While
TTITLE11=Lipstick Powder And Paint
TTITLE12=Midnight Cannonball
TTITLE13=The Chill Is On
TTITLE14=Oke-She-Moke-She-Pop
TTITLE15=You're Driving Me Crazy
TTITLE16=TV Mama
TTITLE17=Tomorrow Night
TTITLE18=Don't You Cry
TTITLE19=Sweet Sixteen
TTITLE20=Chains Of Love
EXTD=
EXTT0=
EXTT1=
EXTT2=
EXTT3=
EXTT4=
EXTT5=
EXTT6=
EXTT7=
EXTT8=
EXTT9=
EXTT10=
EXTT11=
EXTT12=
EXTT13=
EXTT14=
EXTT15=
EXTT16=
EXTT17=
EXTT18=
EXTT19=
EXTT20=
PLAYORDER=
